# xmcd
#
# Track frame offsets:
#	150
#	7109
#	35816
#	39504
#	77077
#	82356
#	117558
#	122143
#	144584
#	147946
#	178231
#	187892
#	226632
#	236519
#	279911
#	286308
#
# Disc length: 4251 seconds
#
# Revision: 1
# Processed by: cddbd v1.4PL0 Copyright (c) Steve Scherf et al.
# Submitted via: audiograbber 1.81.03
#
DISCID=e6109910
DTITLE=Michael Messer - Play The Blues CD2
DYEAR=2003
DGENRE=Blues
TTITLE0=Chacago Rooster Blues (instrumental)
TTITLE1=Chacago Rooster Blues (backing)
TTITLE2=South Side Shuffle (instrumental)
TTITLE3=South Side Shuffle (backing)
TTITLE4=Texas Blues (instrumental)
TTITLE5=Texas Blues (backing)
TTITLE6=Barrelhouse Blues (instrumental)
TTITLE7=Barrelhouse Blues (backing)
TTITLE8=Blues Brother Blues (instrumental)
TTITLE9=Blues Brother Blues (backing)
TTITLE10=Sharp Axe Blues (instrumental)
TTITLE11=Sharp Axe Blues (backing)
TTITLE12=Down In The Mud (instrumental)
TTITLE13=Down In The Mud (backing)
TTITLE14=Blues For Lucille (instrumental)
TTITLE15=Blues For Lucille (backing)
EXTD=authentic Blues backing tracks for guitar players
EXTT0=
EXTT1=
EXTT2=
EXTT3=
EXTT4=
EXTT5=
EXTT6=
EXTT7=
EXTT8=
EXTT9=
EXTT10=
EXTT11=
EXTT12=
EXTT13=
EXTT14=
EXTT15=
PLAYORDER=
